<svg width="19" height="19" viewBox="0 0 19 19" fill="none" xmlns="http://www.w3.org/2000/svg">
<g clip-path="url(#clip0_6549_3301)">
<path d="M8.75 6.97314L11 9.22314L8.75 11.4731" stroke="#388E3C" stroke-width="1.5" stroke-linecap="round" stroke-linejoin="round"/>
<path d="M2.75 9.22314C2.75 10.1096 2.92459 10.9873 3.26381 11.8063C3.60303 12.6252 4.10023 13.3693 4.72703 13.9961C5.35382 14.6229 6.09794 15.1201 6.91689 15.4593C7.73583 15.7986 8.61358 15.9731 9.5 15.9731C10.3864 15.9731 11.2642 15.7986 12.0831 15.4593C12.9021 15.1201 13.6462 14.6229 14.273 13.9961C14.8998 13.3693 15.397 12.6252 15.7362 11.8063C16.0754 10.9873 16.25 10.1096 16.25 9.22314C16.25 7.43293 15.5388 5.71604 14.273 4.45017C13.0071 3.1843 11.2902 2.47314 9.5 2.47314C7.70979 2.47314 5.9929 3.1843 4.72703 4.45017C3.46116 5.71604 2.75 7.43293 2.75 9.22314Z" stroke="#388E3C" stroke-width="1.5" stroke-linecap="round" stroke-linejoin="round"/>
</g>
<defs>
<clipPath id="clip0_6549_3301">
<rect width="18" height="18" fill="white" transform="translate(0.5 0.223145)"/>
</clipPath>
</defs>
</svg>
