<svg width="40" height="41" viewBox="0 0 40 41" fill="none" xmlns="http://www.w3.org/2000/svg">
<g clip-path="url(#clip0_6549_3080)">
<path d="M5 20.9803C5 22.9502 5.38799 24.9007 6.14181 26.7206C6.89563 28.5405 8.00052 30.1941 9.3934 31.5869C10.7863 32.9798 12.4399 34.0847 14.2597 34.8385C16.0796 35.5924 18.0302 35.9803 20 35.9803C21.9698 35.9803 23.9204 35.5924 25.7403 34.8385C27.5601 34.0847 29.2137 32.9798 30.6066 31.5869C31.9995 30.1941 33.1044 28.5405 33.8582 26.7206C34.612 24.9007 35 22.9502 35 20.9803C35 19.0105 34.612 17.06 33.8582 15.2401C33.1044 13.4202 31.9995 11.7666 30.6066 10.3737C29.2137 8.98087 27.5601 7.87597 25.7403 7.12215C23.9204 6.36833 21.9698 5.98035 20 5.98035C18.0302 5.98035 16.0796 6.36833 14.2597 7.12215C12.4399 7.87597 10.7863 8.98087 9.3934 10.3737C8.00052 11.7666 6.89563 13.4202 6.14181 15.2401C5.38799 17.06 5 19.0105 5 20.9803Z" stroke="#388E3C" stroke-linecap="round" stroke-linejoin="round"/>
<path d="M24.6667 15.9803C24.3647 15.4566 23.9261 15.0248 23.3976 14.7312C22.8692 14.4377 22.2708 14.2933 21.6667 14.3137H18.3333C17.4493 14.3137 16.6014 14.6648 15.9763 15.29C15.3512 15.9151 15 16.7629 15 17.647C15 18.531 15.3512 19.3789 15.9763 20.004C16.6014 20.6291 17.4493 20.9803 18.3333 20.9803H21.6667C22.5507 20.9803 23.3986 21.3315 24.0237 21.9566C24.6488 22.5818 25 23.4296 25 24.3137C25 25.1977 24.6488 26.0456 24.0237 26.6707C23.3986 27.2958 22.5507 27.647 21.6667 27.647H18.3333C17.7292 27.6673 17.1308 27.523 16.6024 27.2294C16.0739 26.9358 15.6353 26.5041 15.3333 25.9803" stroke="#388E3C" stroke-linecap="round" stroke-linejoin="round"/>
<path d="M20 12.647V29.3136" stroke="#388E3C" stroke-linecap="round" stroke-linejoin="round"/>
</g>
<defs>
<clipPath id="clip0_6549_3080">
<rect width="40" height="40" fill="white" transform="translate(0 0.980347)"/>
</clipPath>
</defs>
</svg>
