<svg width="65" height="65" viewBox="0 0 65 65" fill="none" xmlns="http://www.w3.org/2000/svg">
<g clip-path="url(#clip0_6504_7131)">
<path d="M19.125 40.7333H45.875V51.4333C45.875 52.8522 45.3113 54.213 44.308 55.2164C43.3047 56.2197 41.9439 56.7833 40.525 56.7833H24.475C23.0561 56.7833 21.6953 56.2197 20.692 55.2164C19.6887 54.213 19.125 52.8522 19.125 51.4333V40.7333Z" stroke="#388E3C" stroke-width="4.0125" stroke-linecap="round" stroke-linejoin="round"/>
<path d="M32.4998 24.6833C32.4998 20.4266 30.8088 16.3442 27.7989 13.3343C24.7889 10.3243 20.7065 8.63333 16.4498 8.63333H8.4248V13.9833C8.4248 18.2401 10.1158 22.3224 13.1257 25.3324C16.1357 28.3424 20.2181 30.0333 24.4748 30.0333H32.4998" stroke="#388E3C" stroke-width="4.0125" stroke-linecap="round" stroke-linejoin="round"/>
<path d="M32.5 30.0333C32.5 25.7766 34.191 21.6942 37.2009 18.6843C40.2109 15.6743 44.2933 13.9833 48.55 13.9833H56.575V16.6583C56.575 20.9151 54.884 24.9974 51.8741 28.0074C48.8641 31.0174 44.7817 32.7083 40.525 32.7083H32.5" stroke="#388E3C" stroke-width="4.0125" stroke-linecap="round" stroke-linejoin="round"/>
<path d="M32.5 40.7333V24.6833" stroke="#388E3C" stroke-width="4.0125" stroke-linecap="round" stroke-linejoin="round"/>
</g>
<defs>
<clipPath id="clip0_6504_7131">
<rect width="64.2" height="64.2" fill="white" transform="translate(0.399902 0.608337)"/>
</clipPath>
</defs>
</svg>
