<svg width="18" height="18" viewBox="0 0 18 18" fill="none" xmlns="http://www.w3.org/2000/svg">
<g clip-path="url(#clip0_6505_5272)">
<path d="M6.9375 8.23779C6.9375 8.7848 7.1548 9.30941 7.54159 9.6962C7.92839 10.083 8.45299 10.3003 9 10.3003C9.54701 10.3003 10.0716 10.083 10.4584 9.6962C10.8452 9.30941 11.0625 8.7848 11.0625 8.23779C11.0625 7.69078 10.8452 7.16618 10.4584 6.77938C10.0716 6.39259 9.54701 6.17529 9 6.17529C8.45299 6.17529 7.92839 6.39259 7.54159 6.77938C7.1548 7.16618 6.9375 7.69078 6.9375 8.23779Z" stroke="#388E3C" stroke-width="1.125" stroke-linecap="round" stroke-linejoin="round"/>
<path d="M12.8892 12.1268L9.97213 15.0438C9.7143 15.3014 9.36478 15.4461 9.00035 15.4461C8.63591 15.4461 8.28639 15.3014 8.02857 15.0438L5.11082 12.1268C4.34165 11.3576 3.81786 10.3776 3.60566 9.31069C3.39347 8.2438 3.5024 7.13795 3.91869 6.13297C4.33498 5.12799 5.03993 4.26903 5.9444 3.66469C6.84886 3.06036 7.91222 2.73779 9 2.73779C10.0878 2.73779 11.1511 3.06036 12.0556 3.66469C12.9601 4.26903 13.665 5.12799 14.0813 6.13297C14.4976 7.13795 14.6065 8.2438 14.3943 9.31069C14.1821 10.3776 13.6584 11.3576 12.8892 12.1268Z" stroke="#388E3C" stroke-width="1.125" stroke-linecap="round" stroke-linejoin="round"/>
</g>
<defs>
<clipPath id="clip0_6505_5272">
<rect width="16.5" height="16.5" fill="white" transform="translate(0.75 0.675293)"/>
</clipPath>
</defs>
</svg>
