<svg width="48" height="49" viewBox="0 0 48 49" fill="none" xmlns="http://www.w3.org/2000/svg">
<g clip-path="url(#clip0_6548_3119)">
<path d="M33 30.9253C30.6131 30.9253 28.3239 31.8735 26.636 33.5613C24.9482 35.2492 24 37.5383 24 39.9253C24 34.9553 20.42 30.9253 16 30.9253M33 22.9253C30.6131 22.9253 28.3239 23.8735 26.636 25.5613C24.9482 27.2492 24 29.5383 24 31.9253C24 26.9553 20.42 22.9253 16 22.9253M33 14.9253C30.6131 14.9253 28.3239 15.8735 26.636 17.5613C24.9482 19.2492 24 21.5383 24 23.9253C24 18.9553 20.42 14.9253 16 14.9253M24 8.92529V20.9253" stroke="#388E3C" stroke-width="3" stroke-linecap="round" stroke-linejoin="round"/>
</g>
<defs>
<clipPath id="clip0_6548_3119">
<rect width="48" height="48" fill="white" transform="translate(0 0.925293)"/>
</clipPath>
</defs>
</svg>
