<svg width="44" height="44" viewBox="0 0 44 44" fill="none" xmlns="http://www.w3.org/2000/svg">
<g clip-path="url(#clip0_6505_5449)">
<path d="M3.98218 16.8987C3.98218 21.6773 5.88047 26.2602 9.25946 29.6392C12.6385 33.0182 17.2213 34.9165 22 34.9165C26.7786 34.9165 31.3615 33.0182 34.7405 29.6392C38.1194 26.2602 40.0177 21.6773 40.0177 16.8987" stroke="#388E3C" stroke-width="2.70267" stroke-linecap="round" stroke-linejoin="round"/>
<path d="M22 34.9165C22 30.1379 23.8983 25.555 27.2773 22.176C30.6563 18.797 35.2392 16.8987 40.0178 16.8987" stroke="#388E3C" stroke-width="2.70267" stroke-linecap="round" stroke-linejoin="round"/>
<path d="M3.98218 16.8987C6.34831 16.8987 8.69127 17.3647 10.8773 18.2702C13.0633 19.1757 15.0496 20.5029 16.7227 22.176C18.3958 23.8491 19.723 25.8353 20.6284 28.0214C21.5339 30.2074 22 32.5503 22 34.9165" stroke="#388E3C" stroke-width="2.70267" stroke-linecap="round" stroke-linejoin="round"/>
<path d="M22 7.88965C23.8158 9.62306 25.2369 11.7273 26.1665 14.0591C27.0961 16.391 27.5125 18.8958 27.3873 21.403" stroke="#388E3C" stroke-width="2.70267" stroke-linecap="round" stroke-linejoin="round"/>
<path d="M16.6094 21.403C16.4842 18.8958 16.9006 16.391 17.8302 14.0591C18.7599 11.7273 20.1809 9.62306 21.9967 7.88965" stroke="#388E3C" stroke-width="2.70267" stroke-linecap="round" stroke-linejoin="round"/>
</g>
<defs>
<clipPath id="clip0_6505_5449">
<rect width="43.2427" height="43.2427" fill="white" transform="translate(0.378662 0.682617)"/>
</clipPath>
</defs>
</svg>
