<svg width="595" height="387" viewBox="0 0 595 387" fill="none" xmlns="http://www.w3.org/2000/svg">
<g opacity="0.1" clip-path="url(#clip0_6555_3422)">
<path d="M49.5029 193.765C49.5029 259.41 75.5805 322.367 121.999 368.785C168.417 415.204 231.374 441.281 297.019 441.281C362.665 441.281 425.622 415.204 472.04 368.785C518.458 322.367 544.536 259.41 544.536 193.765" stroke="#388E3C" stroke-width="37.1275" stroke-linecap="round" stroke-linejoin="round"/>
<path d="M297.02 441.281C297.02 375.636 323.097 312.679 369.515 266.261C415.934 219.842 478.89 193.765 544.536 193.765" stroke="#388E3C" stroke-width="37.1275" stroke-linecap="round" stroke-linejoin="round"/>
<path d="M49.5029 193.765C82.0072 193.765 114.193 200.167 144.223 212.606C174.253 225.045 201.539 243.277 224.523 266.261C247.507 289.245 265.739 316.531 278.178 346.561C290.617 376.591 297.019 408.777 297.019 441.281" stroke="#388E3C" stroke-width="37.1275" stroke-linecap="round" stroke-linejoin="round"/>
<path d="M297.02 70.0066C321.964 93.819 341.485 122.726 354.256 154.759C367.027 186.793 372.747 221.201 371.027 255.644" stroke="#388E3C" stroke-width="37.1275" stroke-linecap="round" stroke-linejoin="round"/>
<path d="M222.967 255.644C221.247 221.201 226.967 186.793 239.738 154.759C252.508 122.726 272.03 93.819 296.974 70.0066" stroke="#388E3C" stroke-width="37.1275" stroke-linecap="round" stroke-linejoin="round"/>
</g>
<defs>
<clipPath id="clip0_6555_3422">
<rect width="594.039" height="594.039" fill="white" transform="translate(0 -29)"/>
</clipPath>
</defs>
</svg>
