<svg width="18" height="18" viewBox="0 0 18 18" fill="none" xmlns="http://www.w3.org/2000/svg">
<g clip-path="url(#clip0_6505_3625)">
<path d="M4.09995 3.3252H6.89995L8.29995 6.8252L6.54995 7.8752C7.29962 9.39527 8.52988 10.6255 10.05 11.3752L11.1 9.6252L14.6 11.0252V13.8252C14.6 14.1965 14.4525 14.5526 14.1899 14.8151C13.9274 15.0777 13.5713 15.2252 13.2 15.2252C10.4694 15.0593 7.89406 13.8997 5.95973 11.9654C4.0254 10.0311 2.86589 7.45571 2.69995 4.7252C2.69995 4.35389 2.84745 3.9978 3.11 3.73525C3.37255 3.47269 3.72865 3.3252 4.09995 3.3252Z" stroke="#388E3C" stroke-width="1.03125" stroke-linecap="round" stroke-linejoin="round"/>
</g>
<defs>
<clipPath id="clip0_6505_3625">
<rect width="16.8" height="16.8" fill="white" transform="translate(0.600098 0.525391)"/>
</clipPath>
</defs>
</svg>
