<svg width="41" height="41" viewBox="0 0 41 41" fill="none" xmlns="http://www.w3.org/2000/svg">
<g clip-path="url(#clip0_6549_14175)">
<path d="M5.5 29.0418C5.5 29.9259 5.85119 30.7737 6.47631 31.3989C7.10143 32.024 7.94928 32.3752 8.83333 32.3752C9.71739 32.3752 10.5652 32.024 11.1904 31.3989C11.8155 30.7737 12.1667 29.9259 12.1667 29.0418C12.1667 28.1578 11.8155 27.3099 11.1904 26.6848C10.5652 26.0597 9.71739 25.7085 8.83333 25.7085C7.94928 25.7085 7.10143 26.0597 6.47631 26.6848C5.85119 27.3099 5.5 28.1578 5.5 29.0418Z" stroke="#75C979" stroke-width="2.5125" stroke-linecap="round" stroke-linejoin="round"/>
<path d="M25.5 29.0418C25.5 29.9259 25.8512 30.7737 26.4763 31.3989C27.1014 32.024 27.9493 32.3752 28.8333 32.3752C29.7174 32.3752 30.5652 32.024 31.1904 31.3989C31.8155 30.7737 32.1667 29.9259 32.1667 29.0418C32.1667 28.1578 31.8155 27.3099 31.1904 26.6848C30.5652 26.0597 29.7174 25.7085 28.8333 25.7085C27.9493 25.7085 27.1014 26.0597 26.4763 26.6848C25.8512 27.3099 25.5 28.1578 25.5 29.0418Z" stroke="#75C979" stroke-width="2.5125" stroke-linecap="round" stroke-linejoin="round"/>
<path d="M12.167 30.7084H25.5003M32.167 30.7084H35.5003V20.7084M35.5003 20.7084C35.5003 17.6142 34.6224 14.6468 33.0595 12.4588C31.4967 10.2709 29.3771 9.04175 27.167 9.04175H25.5003L28.0003 20.7084H35.5003Z" stroke="#75C979" stroke-width="2.5125" stroke-linecap="round" stroke-linejoin="round"/>
<path d="M20.5 30.7084V9.04175H25.5" stroke="#75C979" stroke-width="2.5125" stroke-linecap="round" stroke-linejoin="round"/>
<path d="M5.5 29.0418V20.7085H20.5" stroke="#75C979" stroke-width="2.5125" stroke-linecap="round" stroke-linejoin="round"/>
</g>
<defs>
<clipPath id="clip0_6549_14175">
<rect width="40" height="40" fill="white" transform="translate(0.5 0.708496)"/>
</clipPath>
</defs>
</svg>
