<svg width="40" height="41" viewBox="0 0 40 41" fill="none" xmlns="http://www.w3.org/2000/svg">
<g clip-path="url(#clip0_6505_5919)">
<path d="M8.3335 29.2586C8.3335 30.1427 8.68469 30.9905 9.30981 31.6156C9.93493 32.2408 10.7828 32.592 11.6668 32.592C12.5509 32.592 13.3987 32.2408 14.0239 31.6156C14.649 30.9905 15.0002 30.1427 15.0002 29.2586C15.0002 28.3746 14.649 27.5267 14.0239 26.9016C13.3987 26.2765 12.5509 25.9253 11.6668 25.9253C10.7828 25.9253 9.93493 26.2765 9.30981 26.9016C8.68469 27.5267 8.3335 28.3746 8.3335 29.2586Z" stroke="#388E3C" stroke-linecap="round" stroke-linejoin="round"/>
<path d="M25 29.2586C25 30.1427 25.3512 30.9905 25.9763 31.6156C26.6014 32.2408 27.4493 32.592 28.3333 32.592C29.2174 32.592 30.0652 32.2408 30.6904 31.6156C31.3155 30.9905 31.6667 30.1427 31.6667 29.2586C31.6667 28.3746 31.3155 27.5267 30.6904 26.9016C30.0652 26.2765 29.2174 25.9253 28.3333 25.9253C27.4493 25.9253 26.6014 26.2765 25.9763 26.9016C25.3512 27.5267 25 28.3746 25 29.2586Z" stroke="#388E3C" stroke-linecap="round" stroke-linejoin="round"/>
<path d="M8.3335 29.2588H5.00016V22.5921M3.3335 9.25879H21.6668V29.2588M15.0002 29.2588H25.0002M31.6668 29.2588H35.0002V19.2588M35.0002 19.2588H21.6668M35.0002 19.2588L30.0002 10.9255H21.6668" stroke="#388E3C" stroke-linecap="round" stroke-linejoin="round"/>
<path d="M5 15.9253H11.6667" stroke="#388E3C" stroke-linecap="round" stroke-linejoin="round"/>
</g>
<defs>
<clipPath id="clip0_6505_5919">
<rect width="40" height="40" fill="white" transform="translate(0 0.925293)"/>
</clipPath>
</defs>
</svg>
