<svg width="170" height="50" viewBox="0 0 170 50" fill="none" xmlns="http://www.w3.org/2000/svg">
<path d="M122.088 20.2496L114.375 17.8046L116.166 31.3976L123.247 34.7422H124.652L133.062 32.2819L134.846 18.0604L123.648 20.2518C123.648 20.2518 123.629 20.2561 123.618 20.2561H122.125C122.112 20.2561 122.101 20.2561 122.088 20.2496ZM114.265 17.512L122.142 20.009H123.605L134.963 17.7851C135.03 17.7721 135.093 17.8154 135.106 17.8826C135.109 17.8956 135.109 17.9086 135.106 17.9216L133.292 32.3925C133.286 32.4467 133.244 32.4879 133.195 32.4987L124.698 34.9849C124.687 34.9893 124.674 34.9893 124.663 34.9893H123.215C123.193 34.9893 123.174 34.9828 123.156 34.9741L115.997 31.5926C115.956 31.5731 115.93 31.5341 115.927 31.4908L114.105 17.6463C114.096 17.5792 114.144 17.5185 114.211 17.5098C114.228 17.5076 114.248 17.5098 114.263 17.5141L114.265 17.512Z" fill="#1D1D1B"/>
<path d="M113.66 17.5033L113.449 15.9275C113.449 15.9275 113.447 15.9101 113.447 15.9015V15.637C113.447 15.5785 113.491 15.5265 113.549 15.5156L125.575 13.5626C125.575 13.5626 125.594 13.5583 125.603 13.5583H126.713C126.724 13.5583 126.735 13.5583 126.745 13.5626L135.867 16.1356C135.932 16.1529 135.973 16.2179 135.956 16.2851L135.867 16.6406C135.865 16.6514 135.86 16.6623 135.854 16.6731L135.093 17.9672C135.076 17.9975 135.045 18.0192 135.008 18.0257L134.211 18.1688H134.204L123.646 20.2518C123.637 20.254 123.626 20.2562 123.615 20.2562H122.122C122.109 20.2562 122.098 20.2562 122.085 20.2497L113.742 17.6052C113.699 17.59 113.664 17.5532 113.658 17.5033M113.692 15.8971L113.892 17.3949L122.141 20.009H123.605L134.156 17.9303C134.156 17.9303 134.163 17.9303 134.167 17.9303L134.911 17.7981L135.635 16.5691L135.691 16.3458L126.698 13.8097H125.612L113.692 15.7454V15.8993V15.8971Z" fill="#1D1D1B"/>
<path d="M116.547 16.6146L122.239 18.2208H123.696L132.743 16.8053L126.334 15.2425H125.189L116.547 16.6146ZM113.603 15.7844L116.077 16.4412L125.161 14.9997H125.174H125.18H126.36L126.375 15.0041L133.294 16.6904L135.771 16.335L135.808 16.5777H135.786L123.719 18.4679H123.706H123.7H122.204L122.187 18.4635L113.536 16.0228L113.601 15.7866L113.603 15.7844Z" fill="#1D1D1B"/>
<path d="M125.636 7.30695C125.987 8.19784 126.195 9.78451 126.304 11.4926C126.51 14.7288 126.345 18.4896 126.176 18.7128L126.152 18.7453L126.113 18.7735L125.751 19.0466L125.385 18.5568L125.694 18.3227C125.814 17.9802 125.885 14.5662 125.692 11.5294C125.59 9.94491 125.413 8.48613 125.12 7.66027C122.309 7.36115 119.044 2.19144 118.858 0C123.169 1.46313 124.517 1.29622 125.508 6.7759C127.504 4.58012 128.33 2.05488 132.722 1.68422C130.938 6.11261 128.95 8.67904 125.636 7.30045V7.30479V7.30695Z" fill="#AFCA0B"/>
<path d="M122.391 37.1764C122.391 37.0702 122.404 36.9683 122.43 36.8686L122.393 19.5278C122.354 18.8949 122.809 18.3291 123.449 18.2403L133.519 16.827C133.602 16.8097 133.686 16.801 133.775 16.801C134.453 16.801 135.004 17.3516 135.004 18.03V31.8506C135.004 32.3795 134.659 32.8672 134.126 33.0276L124.91 35.7783V48.7513C124.91 49.4298 124.361 49.9803 123.683 49.9803C123.004 49.9803 122.393 49.4298 122.393 48.7513V37.1764H122.391ZM124.845 20.5228L124.871 33.2292L132.546 30.938V19.4411L124.845 20.5228Z" fill="#1D1D1B"/>
<path d="M155.716 41.4552C155.293 41.4552 154.948 41.1171 154.948 40.6879V12.0496C154.948 11.6248 155.293 11.2823 155.716 11.2823H165.229C165.652 11.2845 165.994 11.627 165.994 12.0496L166.038 26.7784C166.038 26.8023 166.04 26.824 166.04 26.8478C166.04 27.2727 165.695 27.6151 165.272 27.6151H156.494L156.483 37.5947V40.7464C156.453 41.1431 156.119 41.4552 155.716 41.4552ZM156.485 12.817V26.0783H164.505L164.466 12.817H156.485Z" fill="#1D1D1B"/>
<path d="M95.3914 17.5618C95.296 17.15 95.554 16.7382 95.968 16.6428C96.3798 16.5474 96.7917 16.8053 96.8871 17.2194L100.026 29.4858L102.707 21.8017C102.846 21.4028 103.284 21.1904 103.682 21.3313C103.904 21.4093 104.068 21.5784 104.146 21.7821L107.116 29.5335L109.903 17.2367C109.99 16.8227 110.395 16.5561 110.809 16.6428C111.224 16.7295 111.49 17.1348 111.403 17.5488L108.091 32.4814C108.052 32.7458 107.875 32.9821 107.606 33.084C107.209 33.2357 106.767 33.0363 106.615 32.6396L103.461 24.2857L100.607 32.5876C100.529 32.8412 100.323 33.0493 100.043 33.1121C99.6312 33.2075 99.2194 32.9496 99.124 32.5356L95.3892 17.5597L95.3914 17.5618Z" fill="#1D1D1B"/>
<path d="M8.84595 16.6254C9.26863 16.6254 9.61328 16.9657 9.61328 17.3884C9.61328 17.8111 9.27296 18.1557 8.85028 18.1557L2.77885 18.1818L2.76585 23.8652L7.7253 23.8544C8.14798 23.8544 8.49046 24.1968 8.49046 24.6195V24.6282L8.38642 32.1844C8.38208 32.6049 8.0396 32.9409 7.62126 32.9409L0.767328 32.9431C0.342479 32.9431 0 32.5984 0 32.1757C0 31.7531 0.344647 31.4084 0.767328 31.4084H6.86694L6.9493 25.3868L2.00069 25.3977C1.57801 25.3977 1.23553 25.0552 1.23553 24.6325L1.2507 17.4209C1.2507 17.0004 1.59101 16.6579 2.01369 16.6558L8.84595 16.6276V16.6254Z" fill="#1D1D1B"/>
<path d="M18.4182 31.4214V25.5516L12.674 25.5191V31.4236H18.4182V31.4214ZM12.7651 18.1601C12.3402 18.1601 11.9977 17.8154 11.9977 17.3928C11.9977 16.9701 12.3424 16.6254 12.7651 16.6254H19.1855C19.6103 16.6254 19.9528 16.9701 19.9528 17.3928V32.1909C19.9528 32.6158 19.6082 32.9582 19.1855 32.9582H11.9045C11.4797 32.9582 11.1372 32.6136 11.1372 32.1909V24.7496C11.1372 24.3247 11.4819 23.9822 11.9045 23.9822C11.9284 23.9822 11.9522 23.9822 11.9761 23.9866L18.416 24.0234V18.1622H12.7629L12.7651 18.1601Z" fill="#1D1D1B"/>
<path d="M35.7371 18.2186C35.3144 18.2186 34.9697 17.8783 34.9697 17.4556C34.9697 17.0329 35.31 16.6883 35.7327 16.6883L45.2831 16.6276C45.7058 16.6276 46.0505 16.9679 46.0505 17.3906C46.0505 17.5315 46.0136 17.6637 45.9486 17.7764L38.0217 31.4236H46.4255C46.8503 31.4236 47.1928 31.7682 47.1928 32.1909C47.1928 32.6136 46.8481 32.9582 46.4255 32.9582H36.6908C36.5607 32.9582 36.4285 32.9236 36.3071 32.8542C35.9408 32.6418 35.8151 32.1736 36.0275 31.8073L43.9522 18.1666L35.7414 18.2186H35.7371Z" fill="#1D1D1B"/>
<path d="M31.2677 18.1579L24.3357 18.1817L24.34 31.4214H31.2677V18.1579ZM32.0285 6.79321C32.4512 6.79321 32.8023 7.13786 32.8023 7.56054V32.1887C32.8023 32.6136 32.4577 32.9561 32.035 32.9561H23.5727C23.15 32.9539 22.8076 32.6114 22.8076 32.1887L22.8032 17.4188C22.8032 16.9961 23.1457 16.6536 23.5684 16.6536L31.2655 16.6276V7.56054C31.2633 7.13786 31.6036 6.79321 32.0263 6.79321H32.0285Z" fill="#1D1D1B"/>
<path d="M49.6619 16.6232H59.2036C59.6285 16.6232 59.9709 16.9679 59.9709 17.3906V32.1887C59.9709 32.6136 59.6263 32.956 59.2036 32.956H49.6619C49.237 32.956 48.8945 32.6114 48.8945 32.1887V17.3906C48.8945 16.9657 49.2392 16.6232 49.6619 16.6232ZM58.4363 18.1601H50.4292V31.4214H58.4363V18.1601Z" fill="#1D1D1B"/>
<path d="M64.7505 32.3123C64.7505 32.7371 64.4058 33.0796 63.9831 33.0796C63.5605 33.0796 63.2158 32.735 63.2158 32.3123V17.215C63.2158 16.7815 63.5626 16.4477 63.9831 16.4477C64.4037 16.4477 64.7505 16.7815 64.7505 17.215V17.8436L72.4151 16.4585C72.8313 16.3848 73.2279 16.6601 73.3038 17.0763C73.3125 17.1218 73.3168 17.1673 73.3168 17.2107H73.319V32.3101C73.319 32.735 72.9743 33.0775 72.5516 33.0775C72.129 33.0775 71.7843 32.7328 71.7843 32.3101V18.1276L64.7526 19.3978V32.3101L64.7505 32.3123Z" fill="#1D1D1B"/>
<path d="M76.8588 7.56274C76.8588 7.13789 77.2034 6.79541 77.6261 6.79541C78.0488 6.79541 78.3934 7.14006 78.3934 7.56274V20.0871L86.6108 16.684C87.0009 16.5236 87.4496 16.71 87.61 17.1001C87.7683 17.486 87.5884 17.9282 87.2069 18.0929L79.7135 21.5394L87.5515 31.8701C87.7986 32.2126 87.7206 32.6916 87.3781 32.9388C87.0356 33.1859 86.5566 33.1078 86.3095 32.7653L78.3934 22.3284V32.3166C78.3934 32.7393 78.0444 33.0818 77.6218 33.0818C77.1991 33.0818 76.8566 32.7393 76.8566 32.3145V30.8839C76.8479 29.7849 76.8479 30.0342 76.8566 29.1064V7.56274H76.8588Z" fill="#1D1D1B"/>
<path d="M90.3257 17.3906C90.3257 16.9679 90.6682 16.6254 91.0908 16.6254C91.5135 16.6254 91.856 16.9679 91.856 17.3906V32.3145C91.856 32.7371 91.5135 33.0796 91.0908 33.0796C90.6682 33.0796 90.3257 32.7371 90.3257 32.3145V17.3906Z" fill="#1D1D1B"/>
<path d="M152.028 26.087C152.028 25.6621 152.373 25.3196 152.796 25.3196C153.218 25.3196 153.563 25.6643 153.563 26.087V26.9432C153.563 27.368 153.218 27.7105 152.796 27.7105C152.373 27.7105 152.028 27.3659 152.028 26.9432V26.087Z" fill="#1D1D1B"/>
<path d="M90.3213 13.296C90.3213 12.8712 90.6659 12.5287 91.0886 12.5287C91.5113 12.5287 91.8559 12.8733 91.8559 13.296V15.0106C91.8559 15.4354 91.5113 15.7779 91.0886 15.7779C90.6659 15.7779 90.3213 15.4333 90.3213 15.0106V13.296Z" fill="#1D1D1B"/>
<path d="M140.82 14.9087L146.728 13.7512V5.74409L140.82 6.74768V14.9087ZM149.072 28.248C149.065 28.2632 149.059 28.2784 149.052 28.2914L149.072 28.248ZM138.706 28.855L146.718 26.8109L146.726 16.2526L139.825 17.6052C139.159 17.7352 138.515 17.3017 138.385 16.6362C138.37 16.5582 138.362 16.478 138.362 16.4V5.71157C138.362 5.07647 138.845 4.55191 139.465 4.48905L147.752 3.08228C148.419 2.97174 149.052 3.42259 149.163 4.09021C149.178 4.18559 149.182 4.27879 149.178 4.372V15.4376L149.167 27.665C149.173 27.7473 149.173 27.8297 149.163 27.9099L149.158 27.9359C149.145 28.0248 149.124 28.1093 149.093 28.1917V28.1982L149.082 28.2177L149.074 28.2415V28.248C149.065 28.2632 149.059 28.2784 149.052 28.2914L149.041 28.3152C149.026 28.3456 149.009 28.3759 148.991 28.4063L148.978 28.428L148.974 28.4323L148.963 28.4496L148.959 28.4561L148.948 28.4735L148.944 28.48L148.933 28.4973L148.918 28.5168L148.9 28.5385L148.885 28.558L148.872 28.5732L148.866 28.5797L148.853 28.5927L148.846 28.5992L148.833 28.6144L148.829 28.6187L148.814 28.6339L148.809 28.6382L148.796 28.6512L148.785 28.662L148.779 28.6686L148.775 28.6729L148.768 28.6794L148.755 28.6902L148.736 28.7076L148.714 28.7249L148.694 28.7422L148.675 28.7553H148.671L148.655 28.7683L148.647 28.7748L148.632 28.7856L148.621 28.7921L148.61 28.7986L148.595 28.8073L148.586 28.8138L148.573 28.8224L148.56 28.8311L148.541 28.8441H148.536L148.512 28.8593L148.489 28.8723H148.486L148.48 28.8766L148.458 28.8853H148.452L148.43 28.8983L148.421 28.9026L148.404 28.9092L148.389 28.9157L148.376 28.92L148.363 28.9243L148.343 28.9308L148.332 28.9352L148.317 28.9395L148.302 28.9438L148.278 28.9525H148.276L148.248 28.9612L139.315 31.2393C138.658 31.4062 137.989 31.0096 137.822 30.3506C137.655 29.6938 138.052 29.024 138.711 28.8571L138.706 28.855Z" fill="#1D1D1B"/>
<path d="M168.465 2.2196C168.465 1.79475 168.81 1.45227 169.233 1.45227C169.655 1.45227 170 1.79692 170 2.2196V27.0646C170 27.4894 169.655 27.8319 169.233 27.8319C168.81 27.8319 168.465 27.4872 168.465 27.0646V2.2196Z" fill="#1D1D1B"/>
</svg>
