<svg width="34" height="35" viewBox="0 0 34 35" fill="none" xmlns="http://www.w3.org/2000/svg">
<g clip-path="url(#clip0_6505_5934)">
<path d="M5.66675 27.8419C5.66675 28.5933 5.96526 29.314 6.49661 29.8453C7.02797 30.3767 7.74863 30.6752 8.50008 30.6752C9.25153 30.6752 9.9722 30.3767 10.5036 29.8453C11.0349 29.314 11.3334 28.5933 11.3334 27.8419C11.3334 27.0904 11.0349 26.3698 10.5036 25.8384C9.9722 25.3071 9.25153 25.0085 8.50008 25.0085C7.74863 25.0085 7.02797 25.3071 6.49661 25.8384C5.96526 26.3698 5.66675 27.0904 5.66675 27.8419Z" stroke="#388E3C" stroke-linecap="round" stroke-linejoin="round"/>
<path d="M21.25 27.8419C21.25 28.5933 21.5485 29.314 22.0799 29.8453C22.6112 30.3767 23.3319 30.6752 24.0833 30.6752C24.8348 30.6752 25.5554 30.3767 26.0868 29.8453C26.6182 29.314 26.9167 28.5933 26.9167 27.8419C26.9167 27.0904 26.6182 26.3698 26.0868 25.8384C25.5554 25.3071 24.8348 25.0085 24.0833 25.0085C23.3319 25.0085 22.6112 25.3071 22.0799 25.8384C21.5485 26.3698 21.25 27.0904 21.25 27.8419Z" stroke="#388E3C" stroke-linecap="round" stroke-linejoin="round"/>
<path d="M24.0834 25.0086H8.50008V5.17529H5.66675" stroke="#388E3C" stroke-linecap="round" stroke-linejoin="round"/>
<path d="M8.50147 8.00854L17.0015 8.61629M27.1136 17.928L26.9111 19.3447H8.49438" stroke="#388E3C" stroke-linecap="round" stroke-linejoin="round"/>
<path d="M21.25 9.42529H29.75M25.5 5.17529V13.6753" stroke="#388E3C" stroke-linecap="round" stroke-linejoin="round"/>
</g>
<defs>
<clipPath id="clip0_6505_5934">
<rect width="34" height="34" fill="white" transform="translate(0 0.925293)"/>
</clipPath>
</defs>
</svg>
