<svg width="18" height="17" viewBox="0 0 18 17" fill="none" xmlns="http://www.w3.org/2000/svg">
<g clip-path="url(#clip0_6574_5967)">
<path d="M6.9375 7.59814C6.9375 8.14515 7.1548 8.66976 7.54159 9.05655C7.92839 9.44335 8.45299 9.66064 9 9.66064C9.54701 9.66064 10.0716 9.44335 10.4584 9.05655C10.8452 8.66976 11.0625 8.14515 11.0625 7.59814C11.0625 7.05114 10.8452 6.52653 10.4584 6.13974C10.0716 5.75294 9.54701 5.53564 9 5.53564C8.45299 5.53564 7.92839 5.75294 7.54159 6.13974C7.1548 6.52653 6.9375 7.05114 6.9375 7.59814Z" stroke="#388E3C" stroke-width="1.125" stroke-linecap="round" stroke-linejoin="round"/>
<path d="M12.8892 11.4871L9.97213 14.4042C9.7143 14.6618 9.36478 14.8064 9.00035 14.8064C8.63591 14.8064 8.28639 14.6618 8.02857 14.4042L5.11082 11.4871C4.34165 10.7179 3.81786 9.73793 3.60566 8.67104C3.39347 7.60415 3.5024 6.4983 3.91869 5.49332C4.33498 4.48834 5.03993 3.62938 5.9444 3.02504C6.84886 2.42071 7.91222 2.09814 9 2.09814C10.0878 2.09814 11.1511 2.42071 12.0556 3.02504C12.9601 3.62938 13.665 4.48834 14.0813 5.49332C14.4976 6.4983 14.6065 7.60415 14.3943 8.67104C14.1821 9.73793 13.6584 10.7179 12.8892 11.4871Z" stroke="#388E3C" stroke-width="1.125" stroke-linecap="round" stroke-linejoin="round"/>
</g>
<defs>
<clipPath id="clip0_6574_5967">
<rect width="16.5" height="16.5" fill="white" transform="translate(0.75 0.0356445)"/>
</clipPath>
</defs>
</svg>
